HIERARCHY
ROOT Hips
{
 OFFSET 0.000000 0.000000 0.000000
 CHANNELS 6 Xposition Yposition Zposition Yrotation Xrotation Zrotation
 JOINT Chest
 {
  OFFSET 0.000000 9.588913 -0.003946
  CHANNELS 3 Yrotation Xrotation Zrotation
  JOINT Chest2
  {
   OFFSET 0.000000 9.541882 0.008053
   CHANNELS 3 Yrotation Xrotation Zrotation
   JOINT Chest3
   {
    OFFSET 0.000000 9.501360 0.000000
    CHANNELS 3 Yrotation Xrotation Zrotation
    JOINT Chest4
    {
     OFFSET 0.000000 9.491660 0.000000
     CHANNELS 3 Yrotation Xrotation Zrotation
     JOINT Neck
     {
      OFFSET 0.000000 14.331917 0.000000
      CHANNELS 3 Yrotation Xrotation Zrotation
      JOINT Head
      {
       OFFSET 0.000000 8.884799 0.017034
       CHANNELS 3 Yrotation Xrotation Zrotation
       End Site
       {
        OFFSET 0.000000 16.896195 0.008993
       }
      }
     }
     JOINT RightCollar
     {
      OFFSET -2.923010 9.499495 0.000000
      CHANNELS 3 Yrotation Xrotation Zrotation
      JOINT RightShoulder
      {
       OFFSET -13.795216 0.000000 0.000000
       CHANNELS 3 Yrotation Xrotation Zrotation
       JOINT RightElbow
       {
        OFFSET -30.272209 0.000000 0.000000
        CHANNELS 3 Yrotation Xrotation Zrotation
        JOINT RightWrist
        {
         OFFSET -24.478199 0.000000 0.000000
         CHANNELS 3 Yrotation Xrotation Zrotation
         End Site
         {
          OFFSET -18.090752 0.000000 0.000000
         }
        }
       }
      }
     }
     JOINT LeftCollar
     {
      OFFSET 2.923010 9.499495 0.000000
      CHANNELS 3 Yrotation Xrotation Zrotation
      JOINT LeftShoulder
      {
       OFFSET 13.795216 0.000000 0.000000
       CHANNELS 3 Yrotation Xrotation Zrotation
       JOINT LeftElbow
       {
        OFFSET 30.272209 0.000000 0.000000
        CHANNELS 3 Yrotation Xrotation Zrotation
        JOINT LeftWrist
        {
         OFFSET 24.478199 0.000000 0.000000
         CHANNELS 3 Yrotation Xrotation Zrotation
         End Site
         {
          OFFSET 18.090752 0.000000 0.000000
         }
        }
       }
      }
     }
    }
   }
  }
 }
 JOINT RightHip
 {
  OFFSET -7.826875 0.019532 0.001973
  CHANNELS 3 Yrotation Xrotation Zrotation
  JOINT RightKnee
  {
   OFFSET 0.000000 -40.546152 -0.001885
   CHANNELS 3 Yrotation Xrotation Zrotation
   JOINT RightAnkle
   {
    OFFSET 0.000000 -39.417092 -0.003189
    CHANNELS 3 Yrotation Xrotation Zrotation
    JOINT RightToe
    {
     OFFSET 0.000000 -7.579396 17.243563
     CHANNELS 3 Yrotation Xrotation Zrotation
     End Site
     {
      OFFSET 0.000000 -1.500329 6.694466
     }
    }
   }
  }
 }
 JOINT LeftHip
 {
  OFFSET 7.826875 0.019532 0.001973
  CHANNELS 3 Yrotation Xrotation Zrotation
  JOINT LeftKnee
  {
   OFFSET 0.000000 -40.546152 -0.001885
   CHANNELS 3 Yrotation Xrotation Zrotation
   JOINT LeftAnkle
   {
    OFFSET 0.000000 -39.417092 -0.003189
    CHANNELS 3 Yrotation Xrotation Zrotation
    JOINT LeftToe
    {
     OFFSET 0.000000 -7.579396 17.243563
     CHANNELS 3 Yrotation Xrotation Zrotation
     End Site
     {
      OFFSET 0.000000 -1.500329 6.694466
     }
    }
   }
  }
 }
}
MOTION
Frames: 9
Frame Time: 0.008333
-2.886627 48.902526 -9.475522 0.562208 -29.402422 -1.534645 11.165137 8.010199 5.711607 6.431266 4.746133 2.829763 8.082016 5.880206 3.622406 6.431267 4.746134 2.829763 -0.161965 14.963640 1.521659 -0.511607 -10.025804 1.620391 9.131247 -2.349351 -4.153843 13.515550 -31.434875 68.323765 56.251205 6.182225 26.200178 -9.992930 -5.038718 -11.251161 0.442373 -4.454825 6.250958 -18.463308 -41.496865 -72.664114 -26.372522 9.908131 -21.287260 -16.806105 -4.542100 10.138273 31.199206 -58.587559 1.407007 122.218559 66.929972 140.936848 1.842867 -23.737299 -5.843419 -0.090333 0.803217 -0.041414 13.914341 -78.501554 71.140122 -143.076332 66.017950 -105.209943 -0.927402 -14.101300 -15.808519 -0.126946 -0.728861 -0.051565
-2.886240 48.899921 -9.480079 0.536321 -29.404046 -1.544137 11.176216 7.989817 5.734373 6.439456 4.738577 2.838288 8.092286 5.870544 3.633025 6.439456 4.738577 2.838288 -0.135018 14.906176 1.499158 -0.478348 -10.086362 1.590354 9.111525 -2.356555 -4.125843 13.550463 -31.428185 68.428884 56.270366 6.501112 25.913359 -10.051061 -5.010976 -11.170174 0.465908 -4.432194 6.221149 -18.189798 -41.269385 -72.760258 -27.015835 9.724289 -21.641560 -16.083332 -4.356778 10.382520 31.165209 -58.594645 1.453617 122.215154 66.934196 140.924752 1.847014 -23.737052 -5.846235 -0.085256 0.807097 -0.041279 13.807459 -78.512102 71.260971 -143.098911 66.016745 -105.228342 -0.925392 -14.090308 -15.808111 -0.129994 -0.735665 -0.054970
-2.885521 48.897427 -9.484619 0.508681 -29.406896 -1.546876 11.187227 7.973743 5.750429 6.448232 4.731158 2.847260 8.103297 5.861040 3.644213 6.448233 4.731159 2.847260 -0.108691 14.843489 1.474970 -0.445367 -10.152309 1.558685 9.091256 -2.359441 -4.093949 13.565630 -31.428300 68.536309 56.338591 6.943847 25.627840 -10.129470 -4.951231 -11.091445 0.495936 -4.405831 6.194192 -17.930044 -41.013135 -72.841863 -27.697905 9.464490 -22.018253 -15.214089 -4.191055 10.586141 31.139505 -58.600122 1.493765 122.224067 66.937110 140.923832 1.849060 -23.737363 -5.847194 -0.078972 0.808130 -0.040414 13.742791 -78.520119 71.341728 -143.120469 66.015435 -105.243693 -0.922227 -14.084350 -15.807721 -0.133229 -0.739216 -0.058138
-2.884746 48.895207 -9.488887 0.479306 -29.411465 -1.545154 11.198950 7.961769 5.762674 6.458072 4.724333 2.856299 8.115644 5.852267 3.655509 6.458072 4.724333 2.856299 -0.084152 14.775796 1.449771 -0.414034 -10.223385 1.526364 9.066214 -2.360277 -4.058425 13.555625 -31.438660 68.651167 56.441306 7.494449 25.352362 -10.225131 -4.861993 -11.007651 0.530406 -4.379801 6.170519 -17.681352 -40.728139 -72.910921 -28.407261 9.136579 -22.417893 -14.235653 -4.040224 10.745453 31.120648 -58.601976 1.527886 122.232603 66.939019 140.924062 1.851162 -23.739321 -5.848894 -0.072796 0.809282 -0.039299 13.708082 -78.523821 71.393635 -143.142407 66.016141 -105.258154 -0.916770 -14.082576 -15.809320 -0.137038 -0.740342 -0.060922
-2.884306 48.893217 -9.492917 0.449329 -29.415878 -1.542691 11.212799 7.950375 5.775988 6.468799 4.718240 2.865352 8.129109 5.844401 3.666847 6.468799 4.718241 2.865352 -0.063211 14.705562 1.423817 -0.386288 -10.296999 1.494080 9.033759 -2.358066 -4.023003 13.518749 -31.459314 68.778080 56.559013 8.113461 25.093332 -10.335965 -4.755551 -10.915122 0.566677 -4.356018 6.145327 -17.436939 -40.420193 -72.970024 -29.134616 8.764783 -22.837170 -13.205884 -3.889064 10.869048 31.108870 -58.601205 1.553831 122.228176 66.940614 140.914219 1.858986 -23.743190 -5.851955 -0.071848 0.813404 -0.039557 13.678173 -78.524855 71.441340 -143.159347 66.018080 -105.269425 -0.909564 -14.081083 -15.812123 -0.140138 -0.740728 -0.063301
-2.883906 48.891547 -9.496376 0.421620 -29.420528 -1.539965 11.229437 7.938467 5.790565 6.479585 4.712396 2.873937 8.142644 5.836852 3.677604 6.479585 4.712396 2.873937 -0.045493 14.635443 1.397865 -0.361915 -10.370371 1.462557 8.993961 -2.347486 -3.986682 13.461847 -31.487597 68.915450 56.673110 8.747097 24.849634 -10.456258 -4.652680 -10.811873 0.599732 -4.331157 6.118946 -17.181987 -40.099620 -73.023429 -29.877440 8.377425 -23.279220 -12.178702 -3.726493 10.984770 31.101439 -58.597915 1.573386 122.213728 66.941356 140.895073 1.871272 -23.747838 -5.854777 -0.075455 0.818807 -0.041149 13.644767 -78.523103 71.493262 -143.167264 66.017740 -105.275619 -0.903753 -14.079667 -15.813308 -0.141471 -0.740629 -0.065088
-2.883505 48.890337 -9.498754 0.396451 -29.427123 -1.537563 11.247784 7.929011 5.805517 6.489474 4.705930 2.882357 8.155048 5.828538 3.688132 6.489474 4.705930 2.882357 -0.026618 14.566917 1.370806 -0.336110 -10.442008 1.429649 8.955610 -2.325667 -3.948403 13.393657 -31.516376 69.051690 56.764637 9.332032 24.619155 -10.573459 -4.565098 -10.690764 0.630621 -4.302261 6.093636 -16.909613 -39.771036 -73.073720 -30.636956 7.989960 -23.743837 -11.209844 -3.554824 11.117519 31.093546 -58.591547 1.593613 122.198373 66.942735 140.875886 1.883546 -23.753220 -5.858963 -0.077845 0.824121 -0.041682 13.604820 -78.518484 71.554062 -143.172039 66.013500 -105.280525 -0.899915 -14.083247 -15.812970 -0.140180 -0.737965 -0.065819
-2.882978 48.889330 -9.500197 0.372368 -29.433233 -1.534501 11.265327 7.922401 5.819306 6.498540 4.698958 2.891255 8.166424 5.819589 3.699237 6.498541 4.698959 2.891255 -0.002963 14.500045 1.340835 -0.304703 -10.511892 1.392649 8.925663 -2.297679 -3.911119 13.322577 -31.536577 69.172051 56.822865 9.813821 24.402991 -10.678127 -4.496325 -10.540901 0.665733 -4.270797 6.065705 -16.637755 -39.432737 -73.114658 -31.412196 7.604842 -24.219802 -10.364217 -3.375907 11.289439 31.091474 -58.584908 1.609283 122.189530 66.945835 140.866338 1.895900 -23.759547 -5.865407 -0.077706 0.828898 -0.040426 13.572424 -78.514242 71.609048 -143.180216 66.010118 -105.288785 -0.896841 -14.092635 -15.812549 -0.138532 -0.731888 -0.065588
-2.882257 48.888203 -9.500978 0.350866 -29.435953 -1.531466 11.281124 7.916745 5.832695 6.507231 4.692626 2.900358 8.177339 5.811438 3.710606 6.507231 4.692626 2.900358 0.024802 14.433281 1.308052 -0.268416 -10.581615 1.351813 8.901106 -2.273201 -3.876650 13.256296 -31.543308 69.273060 56.848555 10.173174 24.202588 -10.764759 -4.446595 -10.355576 0.707093 -4.241630 6.035565 -16.379295 -39.085135 -73.147744 -32.206586 7.228699 -24.697146 -9.692873 -3.188176 11.524121 31.096104 -58.582277 1.617938 122.185387 66.947869 140.864621 1.904348 -23.764708 -5.872769 -0.074525 0.830997 -0.037697 13.548604 -78.514179 71.653842 -143.191008 66.010850 -105.299771 -0.895925 -14.102170 -15.811428 -0.138275 -0.725018 -0.065176
